# xmcd CD database file
#
# Track frame offsets:
#	182
#	12675
#	25175
#	36825
#	50475
#	62575
#	75700
#	89225
#	101375
#	117125
#	131075
#	142800
#	153075
#	163925
#	178100
#	191200
#
# Disc length: 2747 seconds
#
# Revision: 2
# Processed by: cddbd v1.4b41PL1 Copyright (c) Steve Scherf et al.
# Submitted via: Feurio! 1.50.2ß - http://www.feurio.com
#
DISCID=da0ab910
DTITLE=Muddy Waters - Gold Collection (Disk 2 of 2)
DYEAR=1900
DGENRE=
TTITLE0=Walking thru the park
TTITLE1=Trainfare blues
TTITLE2=Sittin' here drinkin'
TTITLE3=I got a rich man's woman
TTITLE4=Mean mistreater
TTITLE5=You can't lose
TTITLE6=Sad letter
TTITLE7=I can't be satisfied
TTITLE8=Iodine in my coffee
TTITLE9=Close to you
TTITLE10=You gonna miss me
TTITLE11=Mean red spider
TTITLE12=Diamonds at your feet
TTITLE13=You gonna need my help
TTITLE14=So glad I'm living
TTITLE15=One more mile
EXTD=
EXTT0=
EXTT1=
EXTT2=
EXTT3=
EXTT4=
EXTT5=
EXTT6=
EXTT7=
EXTT8=
EXTT9=
EXTT10=
EXTT11=
EXTT12=
EXTT13=
EXTT14=
EXTT15=
PLAYORDER=
